<svg t="1625112430634" class="icon" viewBox="0 0 1024 1024" version="1.1" xmlns="http://www.w3.org/2000/svg"
  p-id="20257" width="200" height="200">
  <path
    d="M128 360.864l-32-0.256v0.256h32z m58.24-98.688l-15.744-27.84-0.224 0.096 15.936 27.744z m0 499.648l-16 27.744 0.256 0.128 15.712-27.84zM128 663.136H96v0.288l32-0.288z m442.24 249.856l15.52 27.968 0.192-0.128-15.712-27.84z m-116.48 0l-15.712 27.84 0.192 0.128 15.552-28zM896 663.136l32 0.288v-0.288h-32z m-58.24 98.688l15.744 27.84 0.224-0.096-15.936-27.744z m0-499.648l16-27.744-0.256-0.128-15.744 27.84zM896 360.864h32v-0.256l-32 0.256zM570.24 111.008l15.712-27.84-0.192-0.128-15.52 27.968z m-116.48 0l-15.52-27.968-0.192 0.128 15.744 27.84zM672 512a160 160 0 0 1-160 160v64a224 224 0 0 0 224-224h-64z m-160 160a160 160 0 0 1-160-160H288a224 224 0 0 0 224 224v-64z m-160-160a160 160 0 0 1 160-160V288a224 224 0 0 0-224 224h64z m160-160a160 160 0 0 1 160 160h64a224 224 0 0 0-224-224v64z m-352 9.12A83.104 83.104 0 0 1 202.176 289.92l-31.904-55.488A147.104 147.104 0 0 0 96 360.576l64 0.544zM202.176 734.08A83.104 83.104 0 0 1 160 662.88l-64 0.544a147.104 147.104 0 0 0 74.24 126.144l31.936-55.488z m352.512 150.912a88.32 88.32 0 0 1-85.376 0l-31.04 55.968a152.32 152.32 0 0 0 147.488 0l-31.04-55.968zM864 662.912a83.104 83.104 0 0 1-42.176 71.168l31.904 55.488A147.104 147.104 0 0 0 928 663.424l-64-0.544zM821.824 289.92A83.104 83.104 0 0 1 864 361.12l64-0.544a147.104 147.104 0 0 0-74.24-126.144l-31.936 55.488z m-236.064-206.88a152.32 152.32 0 0 0-147.52 0l31.04 55.968a88.32 88.32 0 0 1 85.44 0l31.04-55.968zM201.92 290.048l267.552-151.168L438.08 83.2 170.496 234.304l31.456 55.744zM554.496 138.88l267.52 151.168 31.488-55.744-267.52-151.136-31.488 55.712zM864 360.864v302.272h64v-302.272h-64zM160 663.136v-302.272H96v302.272h64z m309.504 221.984l-267.52-151.168-31.488 55.744 267.52 151.136 31.488-55.712z m352.544-151.168l-267.552 151.168 31.456 55.712 267.552-151.136-31.456-55.744z"
    fill="#d1d5da" p-id="20259"></path>
</svg>
